<svg width="168" height="54" viewBox="0 0 168 54" fill="none" xmlns="http://www.w3.org/2000/svg">
<rect width="168" height="54" rx="5" fill="#21BF48"/>
<path d="M75.912 23.938H73.608V19.132H71.754V31.102H73.608V25.468H75.912V23.938ZM70.818 28.186L70.692 26.836C70.026 26.926 69.306 26.998 68.55 27.052V22.066H70.026V20.554H61.332V22.066H62.808V27.25C62.142 27.268 61.494 27.268 60.9 27.268L61.098 28.798C63.888 28.798 67.596 28.708 70.818 28.186ZM64.59 27.232V22.066H66.75V27.142C66.03 27.196 65.292 27.214 64.59 27.232ZM65.184 33.568V29.986H63.312V35.08H74.256V33.568H65.184ZM91.3546 19.132H89.5906V25.468H87.7366V19.438H85.9906V34.612H87.7366V26.98H89.5906V35.368H91.3546V19.132ZM78.0166 20.914V31.156H84.2806V20.914H78.0166ZM79.7446 29.68V22.39H82.5526V29.68H79.7446ZM109.155 27.07V25.54H106.617V19.132H104.763V35.386H106.617V27.07H109.155ZM99.7232 23.848V22.282H103.161V20.752H94.3232V22.282H97.8692V23.848C97.8692 26.53 96.2312 29.608 93.7292 30.814L94.7912 32.29C96.6812 31.372 98.1032 29.428 98.8232 27.16C99.5612 29.266 100.947 31.012 102.765 31.876L103.791 30.418C101.325 29.266 99.7232 26.35 99.7232 23.848ZM128.371 31.318V19.132H126.607V31.318H128.371ZM123.421 24.586V30.85H125.167V19.438H123.421V23.056H121.135V24.586H123.421ZM121.567 28.672L122.575 27.268C120.559 26.314 119.569 24.46 119.569 22.516V20.248H117.769V22.516C117.769 24.46 116.707 26.62 114.529 27.682L115.555 29.086C117.067 28.384 118.093 27.07 118.687 25.558C119.245 26.926 120.199 28.042 121.567 28.672ZM128.821 33.568H119.497V29.878H117.625V35.08H128.821V33.568ZM144.678 19.096H142.806V25.072H139.692V26.602H142.806V35.404H144.678V19.096ZM133.752 30.094V26.584H138.774V25.108H133.752V22.066H139.44V20.536H131.898V31.606H133.176C136.092 31.606 138.18 31.552 140.484 31.12L140.322 29.626C138.198 29.968 136.326 30.094 133.752 30.094Z" fill="white"/>
<path d="M28 13.6665L24 18.9998V37.6665C24 38.3737 24.281 39.052 24.781 39.5521C25.2811 40.0522 25.9594 40.3332 26.6667 40.3332H45.3333C46.0406 40.3332 46.7189 40.0522 47.219 39.5521C47.719 39.052 48 38.3737 48 37.6665V18.9998L44 13.6665H28Z" stroke="white" stroke-width="2" stroke-linecap="round" stroke-linejoin="round"/>
<path d="M24 19H48" stroke="white" stroke-width="2" stroke-linecap="round" stroke-linejoin="round"/>
<path d="M41.3333 24.3335C41.3333 25.748 40.7714 27.1045 39.7712 28.1047C38.771 29.1049 37.4144 29.6668 36 29.6668C34.5855 29.6668 33.2289 29.1049 32.2287 28.1047C31.2285 27.1045 30.6666 25.748 30.6666 24.3335" stroke="white" stroke-width="2" stroke-linecap="round" stroke-linejoin="round"/>
</svg>
