<svg width="80" height="24" viewBox="0 0 80 24" fill="none" xmlns="http://www.w3.org/2000/svg">
<path d="M61.0035 17.056C60.9335 17.2453 60.8589 17.4312 60.7773 17.6194C60.8578 17.4312 60.9335 17.2475 61.0035 17.056Z" fill="#21BF48"/>
<path d="M61.6464 14.4133C61.6231 14.6151 61.5928 14.8145 61.5566 15.014C61.5916 14.8145 61.6219 14.6151 61.6464 14.4133Z" fill="#21BF48"/>
<path d="M61.7331 12.5145C61.7331 12.3206 61.717 12.1279 61.7021 11.9341C61.7182 12.1223 61.7285 12.315 61.7331 12.5145Z" fill="#21BF48"/>
<path d="M61.7354 13.2007C61.7354 13.0351 61.7354 12.8683 61.7354 12.7026C61.7411 12.8683 61.7399 13.034 61.7354 13.2007Z" fill="#21BF48"/>
<path d="M79.9998 5.26826V14.7131C79.9998 19.5341 75.4638 23.6057 70.0932 23.6057C66.5128 23.6057 63.3043 21.7857 61.57 19.1397C62.7751 16.9647 63.3113 14.3683 63.0852 11.7267C62.8579 9.05363 61.8649 6.56761 60.2705 4.64731C60.4213 3.85921 60.8525 3.14695 61.4894 2.63402C62.1263 2.1211 62.9287 1.83983 63.7576 1.83899C64.6978 1.84019 65.599 2.2019 66.2637 2.84479C66.9283 3.48767 67.3021 4.35923 67.303 5.26826V14.7131C67.303 15.6552 68.521 16.7495 70.092 16.7495C71.5116 16.7495 72.9044 15.7409 72.9044 14.7131V5.26826C72.9048 4.81738 72.9971 4.37101 73.176 3.95463C73.3549 3.53826 73.6169 3.16005 73.947 2.8416C74.2771 2.52314 74.6689 2.2707 75.0999 2.09867C75.5309 1.92664 75.9928 1.8384 76.4591 1.83899C77.3984 1.84138 78.2984 2.20362 78.9621 2.84638C79.6257 3.48913 79.9989 4.36001 79.9998 5.26826Z" fill="#21BF48"/>
<path d="M18.4176 7.02627C17.4884 8.79049 17.0066 10.7431 17.012 12.7229C17.0088 15.2661 17.8046 17.7502 19.294 19.8463V20.0379C19.2931 20.9471 18.9191 21.8188 18.2542 22.4617C17.5893 23.1047 16.6878 23.4662 15.7475 23.4671C14.8073 23.4659 13.9061 23.1042 13.2414 22.4613C12.5768 21.8185 12.203 20.9469 12.2021 20.0379V16.1511H7.09374V20.0379C7.09312 20.947 6.71942 21.8187 6.0547 22.4617C5.38997 23.1046 4.48855 23.4662 3.54833 23.4671C2.60821 23.4659 1.70696 23.1042 1.0423 22.4613C0.377647 21.8185 0.0038548 20.9469 0.00292969 20.0379V5.40687C0.00416318 4.49803 0.378093 3.62677 1.04272 2.98413C1.70734 2.34148 2.60841 1.97992 3.54833 1.97873C4.48835 1.97962 5.38959 2.34109 6.05429 2.9838C6.71898 3.6265 7.09281 4.49794 7.09374 5.40687V9.29367H12.2021V5.40687C12.2033 4.49803 12.5772 3.62677 13.2418 2.98413C13.9065 2.34148 14.8075 1.97992 15.7475 1.97873C16.6876 1.97962 17.589 2.34105 18.2538 2.98373C18.9187 3.6264 19.2928 4.49784 19.294 5.40687V5.60183C18.9697 6.05744 18.6769 6.5333 18.4176 7.02627Z" fill="#21BF48"/>
<path d="M49.9525 8.80569C49.7951 8.80569 49.6354 8.80569 49.4746 8.80569C49.6762 8.80569 49.8755 8.80569 50.0713 8.80569H49.9525ZM55.6214 22.7549C55.7741 22.6907 55.9244 22.6242 56.0712 22.5532C55.9244 22.623 55.7741 22.6907 55.6214 22.7549ZM60.7775 17.6149C60.8591 17.4313 60.9336 17.2453 61.0036 17.0515C60.9336 17.2476 60.8579 17.4313 60.7775 17.6149ZM61.556 15.014C61.5921 14.8145 61.6224 14.615 61.6458 14.4133C61.6213 14.615 61.591 14.8145 61.556 15.014ZM61.7017 11.9284C61.7169 12.1223 61.7273 12.315 61.7332 12.5088C61.7285 12.315 61.718 12.1223 61.7017 11.9284ZM61.7378 12.7026C61.7378 12.8683 61.7378 13.0351 61.7378 13.2007C61.7402 13.034 61.7413 12.8683 61.7378 12.7026Z" fill="#21BF48"/>
<path d="M61.738 12.7026C61.7181 10.6964 61.1903 8.72546 60.2007 6.96203C59.9465 6.51966 59.6603 6.09525 59.3441 5.69197C59.2147 5.52969 59.083 5.3708 58.9443 5.21641C58.3238 4.51986 57.5999 3.91604 56.7963 3.42458C56.5595 3.27908 56.3152 3.14518 56.0644 3.02339C55.8418 2.9107 55.6122 2.81153 55.3803 2.71799C54.2945 2.29257 53.1416 2.04905 51.9712 1.99788C50.6822 1.97872 49.279 1.98999 47.9573 1.96745C46.5016 1.97872 45.0238 1.9066 43.5821 2.08916C41.9213 2.48021 40.7919 4.04777 40.9166 5.69535C43.8804 9.77486 43.8222 15.7544 40.9166 19.7561C40.8788 20.3649 40.999 20.9731 41.2663 21.5254C41.556 22.1072 42.0095 22.5981 42.5748 22.9418C43.1401 23.2854 43.7943 23.4679 44.462 23.4683H47.2907C51.1181 23.4683 53.0015 23.5077 53.9934 23.2913C55.9104 22.8458 57.642 21.8471 58.9583 20.4278C59.0749 20.3061 59.1821 20.181 59.2882 20.0525C59.3942 19.924 59.4793 19.8159 59.5725 19.6953C61.0818 17.686 61.7741 15.1706 61.738 12.7026ZM54.7195 13.0779C54.6495 13.8127 54.4864 14.5598 54.0714 15.1864C53.941 15.3865 53.7843 15.5695 53.6053 15.7307C53.2558 16.0316 52.8413 16.2534 52.392 16.3798C50.9608 16.7833 49.4853 16.6052 48.0051 16.6142V8.83838C48.4958 8.83838 48.9899 8.81922 49.4794 8.81246C51.3605 8.76513 53.6694 8.86542 54.3955 10.8826C54.6594 11.5848 54.7697 12.3324 54.7195 13.0779Z" fill="#21BF48"/>
<path d="M36.6123 0.32663C36.6459 0.36755 36.6755 0.411305 36.7009 0.457358C36.6757 0.411222 36.646 0.367454 36.6123 0.32663ZM23.3701 0.606114C23.3848 0.554386 23.4047 0.50418 23.4296 0.45623C23.4042 0.503968 23.3843 0.554224 23.3701 0.606114Z" fill="#21BF48"/>
<path d="M40.9121 8.57018C40.125 6.66018 38.8152 4.99325 37.1231 3.74802C37.1324 3.68717 36.8038 0.830388 36.8026 0.768407C36.7793 0.558501 36.6765 0.364337 36.5141 0.223283C36.3517 0.0822295 36.141 0.00424808 35.9227 0.00434112C35.5159 -0.09821 33.4041 1.64854 33.0567 1.81983C31.0994 1.32173 29.0421 1.32173 27.0848 1.81983C26.7212 1.6384 24.6373 -0.0891945 24.2189 0.00434112C24.0006 0.00471679 23.79 0.082833 23.6275 0.223772C23.465 0.36471 23.3618 0.558599 23.3378 0.768407C23.3378 0.831515 23.0126 3.68379 23.0173 3.7469C14.2365 10.1287 18.9113 23.9979 30.0731 23.9979C38.1895 24.1523 44.0018 15.6597 40.9121 8.57018ZM30.0731 17.1349C24.0825 17.0323 24.0639 8.42819 30.0498 8.29972C36.0649 8.38198 36.087 17.0346 30.0731 17.1405V17.1349Z" fill="#21BF48"/>
</svg>
